<svg width="24" height="24" viewBox="0 0 24 24" fill="none" xmlns="http://www.w3.org/2000/svg">
<path d="M12 2C10.9 2 10 2.9 10 4C10 4.17 10.03 4.33 10.07 4.49C7.75 5.23 6 7.42 6 10V15L4 17V18H20V17L18 15V10C18 7.42 16.25 5.23 13.93 4.49C13.97 4.33 14 4.17 14 4C14 2.9 13.1 2 12 2Z" fill="white"/>
<circle cx="12" cy="4" r="1.5" fill="white" opacity="0.8"/>
<path d="M10 19C10 20.1 10.9 21 12 21C13.1 21 14 20.1 14 19" fill="white"/>
<circle cx="18" cy="5" r="3.5" fill="#EF4444"/>
<text x="18" y="6.5" text-anchor="middle" fill="white" font-size="5" font-weight="700" font-family="Inter, sans-serif">2</text>
</svg>
